# xmcd CD database file
#
# Track frame offsets:
#	150
#	15463
#	42635
#	62541
#	80436
#	101174
#	132419
#	144777
#	168196
#	181256
#	198792
#	224015
#	243255
#	267397
#	285362
#
# Disc length: 4113 seconds
#
# Revision: 0
# Processed by: cddbd v1.5PL3 Copyright (c) Steve Scherf et al.
# Submitted via: CDex 1.51
#
DISCID=d0100f0f
DTITLE=Fritz_Jazz_Band - Still_and_Sparkling
DYEAR=1900
DGENRE=Jazz
TTITLE0=Perdido
TTITLE1=Wendy
TTITLE2=Cool Blues
TTITLE3=Bunko
TTITLE4=Laverne's Walk
TTITLE5=Speak Softly Love
TTITLE6=Four Brothers
TTITLE7=Out of Nowhere
TTITLE8=Blues for Alice
TTITLE9=Gloomy Sunday
TTITLE10=On the Sunny Side of the Street
TTITLE11=Ornithology
TTITLE12=Robbin's Nest
TTITLE13=I Got Rhythm
TTITLE14=Bye, Bye Blackbird
EXTD=
EXTT0=
EXTT1=
EXTT2=
EXTT3=
EXTT4=
EXTT5=
EXTT6=
EXTT7=
EXTT8=
EXTT9=
EXTT10=
EXTT11=
EXTT12=
EXTT13=
EXTT14=
PLAYORDER=
